# xmcd
#
# Track frame offsets:
#	151
#	12554
#	24051
#	33448
#	52147
#	68974
#	82725
#	96028
#	107451
#	121356
#	133903
#	143684
#	159239
#	170896
#	180751
#	197354
#	207063
#	219914
#	229393
#	240824
#
# Disc length: 3358 seconds
#
# Revision: 1
# Processed by: cddbd v1.5.2PL0 Copyright (c) Steve Scherf et al.
# Submitted via: audiograbber 1.83.01
#
DISCID=fb0d1c14
DTITLE=Randy Albright - Country Therapy
DYEAR=1999
DGENRE=Country
TTITLE0=Tell Me Again Haw Lucky I Am
TTITLE1=Someone Special
TTITLE2=When You Gave Your Love
TTITLE3=Loving You
TTITLE4=The Blues Moved In
TTITLE5=Nashville Tennessee
TTITLE6=Lazy Sonofagun
TTITLE7=It Must Be Said
TTITLE8=Keep Your Hands On The Wheel
TTITLE9=She´s Every Little Thing That I Need
TTITLE10=Give Me A Honky Tonk Night
TTITLE11=Just A Stones Throw From You
TTITLE12=I´d Never Find Another Like You
TTITLE13=Grow Old With Me
TTITLE14=It´s Over
TTITLE15=Who Would You Blame If You Didn´t Have Me
TTITLE16=It´s Over In Her Heart
TTITLE17=Paradise
TTITLE18=I Never Use To Drink Until I Meet You
TTITLE19=Sing Me An Old Fashion Love Song
EXTD=
EXTT0=
EXTT1=
EXTT2=
EXTT3=
EXTT4=
EXTT5=
EXTT6=
EXTT7=
EXTT8=
EXTT9=
EXTT10=
EXTT11=
EXTT12=
EXTT13=
EXTT14=
EXTT15=
EXTT16=
EXTT17=
EXTT18=
EXTT19=
PLAYORDER=
